:FULLY-SPECIFIED
:FORCE-ALL-JOINTS-BE-3DOF
:DEGREES
1121
root 0.913765 14.4975 -28.1191 362.92 1.13707 363.736
lfemur -31.649 9.69846 -25.929
ltibia 70.8722 0 0
lfoot -25.4461 30.0324 0
ltoes -13.0986 0 0
rfemur -48.4669 -12.1216 14.1195
rtibia 94.811 0 0
rfoot -4.82207 -1.55908 0
rtoes -10.4343 0 0
lowerback 14.3209 1.22272 -10.514
upperback -0.768512 -0.0208825 0.975099
thorax -8.9163 0.523298 7.08837
lowerneck -5.05731 -1.75145 -4.25341
upperneck 3.66629 -2.54496 4.1806
head 2.53732 -1.23401 1.74846
lclavicle -4.70781e-14 -1.0441e-14 0
lhumerus 37.9198 -11.1892 61.4706
lradius 88.2701 0 0
lwrist 37.6441 0 0
lhand -28.2845 29.4008 0
lfingers 7.12502 0 0
lthumb -1.66351 59.0767 0
rclavicle -4.70781e-14 -1.0441e-14 0
rhumerus -16.2284 13.4553 -80.4589
rradius 86.0368 0 0
rwrist -29.2968 0 0
rhand -25.7397 -49.6321 0
rfingers 7.12502 0 0
rthumb 0.799784 -79.445 0
1122
root 0.881864 14.4935 -27.9232 362.569 2.24472 363.847
lfemur -30.1971 9.45397 -25.5832
ltibia 70.3614 0 0
lfoot -25.6979 30.2954 0
ltoes -13.0744 0 0
rfemur -48.5527 -12.1255 13.6849
rtibia 93.4293 0 0
rfoot -4.36761 -1.15155 0
rtoes -10.0461 0 0
lowerback 14.2588 1.3234 -10.5912
upperback -0.730427 0.100819 0.863879
thorax -8.86053 0.578512 6.9843
lowerneck -4.89588 -2.17308 -4.63436
upperneck 3.83939 -3.1281 4.49193
head 2.62336 -1.52356 1.87106
lclavicle -4.32224e-14 -9.59986e-15 0
lhumerus 33.7561 -11.2843 63.2556
lradius 89.0076 0 0
lwrist 38.227 0 0
lhand -27.5522 28.4641 0
lfingers 7.12502 0 0
lthumb -0.956778 58.1264 0
rclavicle -4.32224e-14 -9.59986e-15 0
rhumerus -12.9825 12.5392 -78.6006
rradius 86.1406 0 0
rwrist -27.4128 0 0
rhand -26.3461 -49.4459 0
rfingers 7.12502 0 0
rthumb 0.214383 -79.2502 0
1123
root 0.849964 14.4894 -27.7272 362.216 3.36455 363.951
lfemur -28.7293 9.21665 -25.2165
ltibia 69.8437 0 0
lfoot -25.9499 30.5499 0
ltoes -13.056 0 0
rfemur -48.6099 -12.1284 13.2358
rtibia 91.9823 0 0
rfoot -3.91185 -0.748469 0
rtoes -9.66161 0 0
lowerback 14.1938 1.42579 -10.6621
upperback -0.691936 0.225959 0.753124
thorax -8.80325 0.634996 6.87637
lowerneck -4.73046 -2.60011 -5.02099
upperneck 4.01797 -3.71892 4.80853
head 2.71182 -1.81692 1.9957
lclavicle -3.92065e-14 -8.69526e-15 0
lhumerus 29.5121 -11.3747 65.0715
lradius 89.7623 0 0
lwrist 38.8122 0 0
lhand -26.8054 27.5078 0
lfingers 7.12502 0 0
lthumb -0.236035 57.1564 0
rclavicle -3.92065e-14 -8.69526e-15 0
rhumerus -9.68787 11.6049 -76.7032
rradius 86.2606 0 0
rwrist -25.5018 0 0
rhand -26.9588 -49.2416 0
rfingers 7.12502 0 0
rthumb -0.377068 -79.0367 0
1124
root 0.818064 14.4854 -27.5313 361.86 4.49403 364.046
lfemur -27.2489 8.9863 -24.8307
ltibia 69.3197 0 0
lfoot -26.2015 30.7961 0
ltoes -13.0435 0 0
rfemur -48.6407 -12.1308 12.7742
rtibia 90.4776 0 0
rfoot -3.45618 -0.350334 0
rtoes -9.28156 0 0
lowerback 14.1264 1.52958 -10.7272
upperback -0.65318 0.354056 0.642989
thorax -8.74478 0.692556 6.76501
lowerneck -4.56155 -3.0315 -5.41227
upperneck 4.20119 -4.31595 5.12954
head 2.80232 -2.11336 2.12205
lclavicle -3.505e-14 -7.73439e-15 0
lhumerus 25.2001 -11.4608 66.9131
lradius 90.5318 0 0
lwrist 39.3992 0 0
lhand -26.0465 26.536 0
lfingers 7.12502 0 0
lthumb 0.496432 56.1707 0
rclavicle -3.505e-14 -7.73439e-15 0
rhumerus -6.35317 10.6553 -74.7725
rradius 86.3955 0 0
rwrist -23.5692 0 0
rhand -27.5762 -49.0203 0
rfingers 7.12502 0 0
rthumb -0.973098 -78.8059 0
1125
root 0.786163 14.4814 -27.3354 361.504 5.63066 364.135
lfemur -25.7592 8.76274 -24.4276
ltibia 68.7898 0 0
lfoot -26.4517 31.034 0
ltoes -13.037 0 0
rfemur -48.6474 -12.133 12.302
rtibia 88.9226 0 0
rfoot -3.00199 0.0423692 0
rtoes -8.90649 0 0
lowerback 14.0571 1.63447 -10.7866
upperback -0.614303 0.484626 0.533632
thorax -8.68543 0.750997 6.65067
lowerneck -4.38969 -3.46621 -5.80716
upperneck 4.38819 -4.91774 5.45408
head 2.8945 -2.41217 2.24976
lclavicle -3.07727e-14 -6.72445e-15 0
lhumerus 20.8327 -11.543 68.7752
lradius 91.3134 0 0
lwrist 39.9876 0 0
lhand -25.2778 25.5528 0
lfingers 7.12502 0 0
lthumb 1.23833 55.1735 0
rclavicle -3.07727e-14 -6.72445e-15 0
rhumerus -2.98726 9.69313 -72.814
rradius 86.5437 0 0
rwrist -21.6202 0 0
rhand -28.1968 -48.7834 0
rfingers 7.12502 0 0
rthumb -1.57224 -78.559 0
1126
root 0.754263 14.4773 -27.1395 361.149 6.77191 364.216
lfemur -24.2633 8.54575 -24.0093
ltibia 68.2548 0 0
lfoot -26.6999 31.2638 0
ltoes -13.0364 0 0
rfemur -48.6324 -12.1353 11.8214
rtibia 87.3251 0 0
rfoot -2.55069 0.429151 0
rtoes -8.53696 0 0
lowerback 13.9862 1.74016 -10.8407
upperback -0.575446 0.617188 0.425211
thorax -8.62552 0.810128 6.53381
lowerneck -4.21537 -3.90319 -6.20461
upperneck 4.5781 -5.52279 5.78128
head 2.98799 -2.7126 2.3785
lclavicle -2.63941e-14 -5.67264e-15 0
lhumerus 16.4222 -11.6216 70.6525
lradius 92.1048 0 0
lwrist 40.5767 0 0
lhand -24.5017 24.5624 0
lfingers 7.12502 0 0
lthumb 1.98737 54.1689 0
rclavicle -2.63941e-14 -5.67264e-15 0
rhumerus 0.401014 8.72133 -70.8337
rradius 86.704 0 0
rwrist -19.6599 0 0
rhand -28.8191 -48.5322 0
rfingers 7.12502 0 0
rthumb -2.17302 -78.2975 0
1127
root 0.722362 14.4733 -26.9436 360.795 7.91528 364.292
lfemur -22.7645 8.33513 -23.5774
ltibia 67.7153 0 0
lfoot -26.9453 31.4857 0
ltoes -13.042 0 0
rfemur -48.5978 -12.1381 11.3341
rtibia 85.6925 0 0
rfoot -2.10367 0.809524 0
rtoes -8.17355 0 0
lowerback 13.9141 1.84634 -10.8897
upperback -0.536752 0.75126 0.317881
thorax -8.56537 0.869754 6.41486
lowerneck -4.03912 -4.34139 -6.6036
upperneck 4.77007 -6.12965 6.11028
head 3.0824 -3.01393 2.50793
lclavicle -2.19338e-14 -4.58616e-15 0
lhumerus 11.9811 -11.6969 72.5398
lradius 92.9034 0 0
lwrist 41.1663 0 0
lhand -23.7205 23.5688 0
lfingers 7.12502 0 0
lthumb 2.74126 53.1612 0
rclavicle -2.19338e-14 -4.58616e-15 0
rhumerus 3.80282 7.74268 -68.8372
rradius 86.8749 0 0
rwrist -17.6938 0 0
rhand -29.4416 -48.2678 0
rfingers 7.12502 0 0
rthumb -2.77398 -78.0227 0
1128
root 0.690462 14.4693 -26.7477 360.443 9.05825 364.361
lfemur -21.2661 8.13069 -23.134
ltibia 67.1719 0 0
lfoot -27.1869 31.6997 0
ltoes -13.0536 0 0
rfemur -48.546 -12.1418 10.8423
rtibia 84.0325 0 0
rfoot -1.66233 1.183 0
rtoes -7.81685 0 0
lowerback 13.8414 1.9527 -10.9339
upperback -0.498364 0.886358 0.211802
thorax -8.50529 0.929681 6.29428
lowerneck -3.86145 -4.77977 -7.00307
upperneck 4.96325 -6.73683 6.4402
head 3.17738 -3.31543 2.63771
lclavicle -1.74115e-14 -3.4722e-15 0
lhumerus 7.52186 -11.7693 74.4318
lradius 93.7067 0 0
lwrist 41.7557 0 0
lhand -22.9367 22.5763 0
lfingers 7.12502 0 0
lthumb 3.4977 52.1544 0
rclavicle -1.74115e-14 -3.4722e-15 0
rhumerus 7.20933 6.76003 -66.8302
rradius 87.0552 0 0
rwrist -15.7269 0 0
rhand -30.0627 -47.9917 0
rfingers 7.12502 0 0
rthumb -3.37363 -77.7359 0
1129
root 0.658561 14.4652 -26.5517 360.095 10.1983 364.425
lfemur -19.7712 7.93222 -22.6808
ltibia 66.6252 0 0
lfoot -27.4242 31.9061 0
ltoes -13.0715 0 0
rfemur -48.4792 -12.1466 10.3478
rtibia 82.3525 0 0
rfoot -1.22806 1.54909 0
rtoes -7.46742 0 0
lowerback 13.7683 2.05893 -10.9738
upperback -0.460423 1.022 0.107129
thorax -8.44559 0.989718 6.17251
lowerneck -3.68287 -5.21728 -7.40199
upperneck 5.15677 -7.34288 6.77018
head 3.27253 -3.61638 2.7675
lclavicle -1.28469e-14 -2.33798e-15 0
lhumerus 3.0568 -11.8391 76.3233
lradius 94.5121 0 0
lwrist 42.3445 0 0
lhand -22.1527 21.5888 0
lfingers 7.12502 0 0
lthumb 4.25441 51.1529 0
rclavicle -1.28469e-14 -2.33798e-15 0
rhumerus 10.6117 5.7762 -64.8185
rradius 87.2433 0 0
rwrist -13.7647 0 0
rhand -30.681 -47.705 0
rfingers 7.12502 0 0
rthumb -3.97052 -77.4384 0
1130
root 0.626661 14.4612 -26.3558 359.752 11.3329 364.485
lfemur -18.2831 7.73953 -22.2198
ltibia 66.0758 0 0
lfoot -27.6562 32.1049 0
ltoes -13.0956 0 0
rfemur -48.3998 -12.1529 9.85266
rtibia 80.6601 0 0
rfoot -0.802269 1.9073 0
rtoes -7.12585 0 0
lowerback 13.6954 2.16475 -11.0094
upperback -0.423072 1.15771 0.00402021
thorax -8.38659 1.04967 6.05
lowerneck -3.50391 -5.65287 -7.79931
upperneck 5.34979 -7.9463 7.09934
head 3.3675 -3.91603 2.89697
lclavicle -8.25942e-15 -1.19068e-15 0
lhumerus -1.40159 -11.9067 78.2091
lradius 95.3171 0 0
lwrist 42.9323 0 0
lhand -21.3707 20.6106 0
lfingers 7.12502 0 0
lthumb 5.0091 50.1606 0
rclavicle -8.25942e-15 -1.19068e-15 0
rhumerus 14.0011 4.79401 -62.8078
rradius 87.438 0 0
rwrist -11.8122 0 0
rhand -31.2949 -47.4091 0
rfingers 7.12502 0 0
rthumb -4.56318 -77.1316 0
1131
root 0.594761 14.4572 -26.1599 359.413 12.4596 364.539
lfemur -16.805 7.55241 -21.7528
ltibia 65.5244 0 0
lfoot -27.8821 32.2963 0
ltoes -13.126 0 0
rfemur -48.31 -12.1611 9.35881
rtibia 78.963 0 0
rfoot -0.386348 2.25716 0
rtoes -6.79271 0 0
lowerback 13.623 2.26983 -11.0412
upperback -0.386454 1.29299 -0.0973674
thorax -8.3286 1.10934 5.92719
lowerneck -3.32507 -6.0855 -8.19401
upperneck 5.54144 -8.54564 7.42682
head 3.46192 -4.21368 3.02577
lclavicle -3.66883e-15 -3.75e-17 0
lhumerus -5.8409 -11.9723 80.0839
lradius 96.1193 0 0
lwrist 43.5184 0 0
lhand -20.5933 19.6458 0
lfingers 7.12502 0 0
lthumb 5.75946 49.1819 0
rclavicle -3.66883e-15 -3.75e-17 0
rhumerus 17.3687 3.8163 -60.8039
rradius 87.6379 0 0
rwrist -9.87484 0 0
rhand -31.9029 -47.1052 0
rfingers 7.12502 0 0
rthumb -5.15013 -76.8167 0
1132
root 0.56286 14.4531 -25.964 359.082 13.5758 364.59
lfemur -15.3401 7.37067 -21.2817
ltibia 64.9715 0 0
lfoot -28.1013 32.4804 0
ltoes -13.1628 0 0
rfemur -48.212 -12.1715 8.86824
rtibia 77.2686 0 0
rfoot 0.0183049 2.59816 0
rtoes -6.46858 0 0
lowerback 13.5515 2.37387 -11.0695
upperback -0.350711 1.42738 -0.196877
thorax -8.27194 1.16854 5.80453
lowerneck -3.14688 -6.51413 -8.58503
upperneck 5.73086 -9.13942 7.75175
head 3.5554 -4.50857 3.15357
lclavicle 9.05274e-16 1.11435e-15 0
lhumerus -10.2487 -12.0364 81.9425
lradius 96.9161 0 0
lwrist 44.1025 0 0
lhand -19.8226 18.6984 0
lfingers 7.12502 0 0
lthumb 6.50321 48.2208 0
rclavicle 9.05274e-16 1.11435e-15 0
rhumerus 20.7057 2.8459 -58.8124
rradius 87.8415 0 0
rwrist -7.95779 0 0
rhand -32.5034 -46.7946 0
rfingers 7.12502 0 0
rthumb -5.7299 -76.4952 0
1133
root 0.53096 14.4491 -25.7681 358.758 14.6791 364.637
lfemur -13.8918 7.19409 -20.8084
ltibia 64.4178 0 0
lfoot -28.3129 32.6574 0
ltoes -13.206 0 0
rfemur -48.1083 -12.1844 8.38292
rtibia 75.5846 0 0
rfoot 0.410292 2.92982 0
rtoes -6.15403 0 0
lowerback 13.4815 2.47657 -11.0944
upperback -0.315985 1.56038 -0.294351
thorax -8.21692 1.22708 5.68248
lowerneck -2.96984 -6.9377 -8.97134
upperneck 5.91721 -9.72617 8.07325
head 3.64757 -4.8 3.28002
lclavicle 5.44327e-15 2.25768e-15 0
lhumerus -14.6125 -12.0993 83.7797
lradius 97.705 0 0
lwrist 44.684 0 0
lhand -19.0612 17.7726 0
lfingers 7.12502 0 0
lthumb 7.23807 47.2815 0
rclavicle 5.44327e-15 2.25768e-15 0
rhumerus 24.0032 1.88564 -56.8392
rradius 88.0475 0 0
rwrist -6.06631 0 0
rhand -33.095 -46.4786 0
rfingers 7.12502 0 0
rthumb -6.30103 -76.1684 0
